<?xml version="1.0" standalone="no"?>
<!DOCTYPE svg PUBLIC "-//W3C//DTD SVG 20010904//EN"
 "http://www.w3.org/TR/2001/REC-SVG-20010904/DTD/svg10.dtd">
<svg version="1.0" xmlns="http://www.w3.org/2000/svg"
 width="1024.000000pt" height="1024.000000pt" viewBox="0 0 1024.000000 1024.000000"
 preserveAspectRatio="xMidYMid meet">

<g transform="translate(0.000000,1024.000000) scale(0.100000,-0.100000)"
fill="#000000" stroke="none">
<path d="M4885 9483 c-481 -28 -923 -128 -1375 -311 -174 -70 -489 -230 -635
-322 -480 -304 -932 -747 -1248 -1224 -485 -730 -717 -1593 -669 -2483 35
-644 215 -1248 543 -1823 442 -777 1155 -1408 1990 -1761 500 -211 975 -313
1534 -326 943 -22 1794 239 2558 785 281 201 602 510 824 795 505 646 803
1402 874 2217 15 176 6 649 -16 830 -89 723 -361 1402 -797 1983 -252 337
-630 692 -993 934 -478 318 -973 519 -1550 631 -313 61 -748 93 -1040 75z
m420 -113 c334 -16 580 -52 880 -130 467 -122 878 -309 1270 -578 994 -682
1606 -1735 1721 -2957 22 -228 14 -604 -16 -830 -168 -1265 -909 -2376 -2004
-3005 -555 -319 -1138 -489 -1820 -531 -365 -23 -805 17 -1164 106 -678 167
-1259 473 -1771 931 -360 322 -618 648 -852 1076 -401 738 -560 1540 -469
2368 38 340 133 719 260 1040 288 725 857 1418 1520 1853 600 392 1259 609
1995 656 185 12 216 12 450 1z"/>
<path d="M4347 8509 c-10 -6 -97 -117 -194 -247 -98 -130 -336 -447 -530 -704
-213 -281 -353 -475 -353 -488 0 -12 54 -187 121 -389 66 -201 122 -372 124
-378 5 -16 -18 -16 -191 -3 -438 32 -666 42 -680 28 -7 -7 -62 -134 -122 -283
-118 -292 -191 -472 -387 -950 -70 -170 -139 -338 -153 -372 l-25 -62 57 -78
c155 -211 499 -700 680 -966 33 -49 67 -92 76 -96 8 -5 132 -14 275 -20 143
-6 298 -14 345 -16 47 -3 189 -10 315 -15 127 -6 320 -14 430 -19 471 -23 489
-23 506 -9 8 7 25 38 36 68 12 30 45 116 74 190 43 112 196 502 419 1063 24
59 45 106 47 104 6 -7 93 -338 267 -1012 l51 -200 40 -6 c22 -4 475 -8 1007
-8 l967 -2 48 59 c26 32 133 166 238 298 104 131 288 363 409 514 120 151 224
284 231 295 14 21 3 63 -196 725 -65 216 -100 336 -264 900 -31 107 -61 200
-66 205 -7 6 -262 10 -727 10 l-717 0 -43 145 c-140 470 -197 664 -218 740
-13 47 -39 135 -57 195 -33 110 -33 110 -77 132 -25 13 -229 93 -455 179 -504
192 -1027 393 -1158 445 -103 41 -121 45 -150 28z m33 -170 c0 -5 74 -213 164
-462 240 -665 246 -680 237 -692 -4 -5 -64 -80 -132 -165 -328 -407 -859
-1072 -873 -1092 -9 -12 -17 -20 -19 -17 -2 2 -22 65 -46 139 -23 74 -106 330
-184 568 -99 303 -138 437 -132 447 6 7 147 195 315 417 167 222 383 508 478
636 96 127 179 232 183 232 5 0 9 -5 9 -11z m293 -51 c183 -69 596 -228 1017
-390 157 -60 304 -117 328 -126 42 -16 43 -18 68 -102 14 -47 34 -112 44 -145
11 -33 28 -91 39 -130 10 -38 60 -207 109 -375 109 -370 112 -380 104 -380 -4
0 -61 22 -127 49 -66 28 -388 156 -715 285 -327 130 -606 242 -619 249 -19 10
-45 74 -148 357 -111 308 -257 705 -278 753 -4 10 -3 17 4 17 6 0 85 -28 174
-62z m432 -1262 c253 -102 1233 -490 1258 -500 20 -7 28 5 -104 -147 -161
-186 -775 -907 -841 -990 l-78 -97 -35 17 c-34 16 -42 34 -27 59 7 10 16 10
44 -2 19 -9 38 -12 42 -9 15 15 3 33 -29 44 -39 15 -41 17 -21 45 13 17 18 18
48 6 49 -20 63 -19 63 2 0 13 -15 24 -52 39 -58 22 -79 18 -92 -15 -5 -13 -23
-53 -40 -89 -17 -36 -31 -69 -31 -73 0 -4 25 -18 56 -32 46 -20 54 -27 44 -39
-10 -12 -17 -12 -43 -1 -318 136 -365 155 -952 390 -340 136 -468 191 -473
204 -2 6 39 60 91 119 82 94 188 224 627 768 243 300 314 385 324 385 6 0 105
-38 221 -84z m2662 -492 c22 -6 20 -9 -28 -68 -62 -73 -462 -566 -609 -750
l-105 -131 -648 -5 c-356 -3 -647 -2 -647 1 0 3 141 170 313 370 171 201 352
412 401 469 49 58 96 108 105 112 20 8 1187 10 1218 2z m134 -105 c4 -13 42
-141 84 -284 93 -317 129 -437 250 -855 52 -179 101 -347 109 -375 9 -27 16
-58 16 -68 0 -10 -152 -209 -338 -441 -187 -232 -365 -457 -397 -501 -32 -43
-60 -75 -61 -69 -2 5 -48 173 -104 374 -91 327 -173 614 -314 1103 -25 87 -46
164 -46 171 0 12 173 231 620 783 85 106 159 191 164 189 6 -1 13 -13 17 -27z
m-4557 -243 c115 -8 210 -17 211 -18 1 -2 33 -95 71 -207 l69 -204 60 -23
c140 -54 1061 -419 1180 -468 72 -30 147 -60 168 -67 40 -14 51 -33 15 -24
-13 2 -129 9 -258 15 -129 6 -329 15 -445 20 -115 5 -372 17 -570 25 -303 13
-362 18 -377 32 -17 15 -197 264 -533 736 -85 120 -155 219 -155 220 0 2 262
-15 564 -37z m-630 -51 c6 -17 183 -269 450 -643 100 -139 188 -265 198 -280
15 -26 15 -31 -26 -137 -56 -143 -530 -1322 -546 -1357 l-13 -27 -28 42 c-15
23 -95 137 -178 252 -82 116 -213 300 -291 410 -77 110 -154 218 -171 241
l-30 40 31 70 c18 38 104 247 192 464 355 876 382 940 396 940 6 0 12 -7 16
-15z m4277 -684 c3 -3 79 -265 168 -581 90 -316 182 -642 207 -725 125 -429
121 -404 59 -400 -16 1 -429 3 -917 4 -703 1 -888 4 -888 14 0 12 -238 921
-304 1160 l-35 128 122 142 c68 78 146 172 175 209 l53 67 677 -6 c372 -3 680
-8 683 -12z m-3206 -326 c110 -3 283 -10 385 -15 102 -5 367 -17 590 -26 223
-9 406 -18 408 -20 2 -1 -93 -245 -211 -541 -266 -666 -370 -938 -372 -968 0
-5 -22 -12 -50 -13 -46 -4 -609 12 -850 23 -55 3 -152 7 -215 10 -63 2 -171 7
-240 11 -69 4 -147 8 -175 9 -27 1 -81 3 -118 4 -66 1 -68 2 -62 24 20 65 591
1485 603 1500 12 13 26 16 61 12 25 -2 136 -7 246 -10z"/>
<path d="M3997 5928 c-32 -69 -44 -105 -37 -112 15 -15 24 -2 74 100 31 63 41
93 34 102 -6 6 -13 12 -17 12 -3 0 -27 -46 -54 -102z"/>
<path d="M4065 5898 c-50 -101 -52 -113 -29 -122 11 -4 23 11 46 64 17 38 34
67 38 65 4 -2 13 -38 20 -80 13 -76 31 -108 51 -88 13 13 80 162 82 183 1 8
-5 16 -14 17 -10 3 -24 -16 -44 -62 -33 -73 -37 -70 -50 30 -14 115 -41 113
-100 -7z"/>
<path d="M4292 5803 c3 -110 4 -118 24 -121 15 -2 38 18 87 77 64 77 81 111
55 111 -7 0 -39 -28 -70 -62 l-57 -63 -1 81 c0 79 -6 94 -36 94 -3 0 -3 -53
-2 -117z"/>
<path d="M4473 5783 c-14 -32 -34 -76 -44 -97 -10 -22 -19 -41 -19 -43 0 -10
108 -53 133 -53 15 0 27 -4 27 -9 0 -22 34 -19 62 4 17 14 36 24 42 22 6 -2
15 -22 20 -45 7 -34 13 -42 31 -42 22 0 22 0 6 61 l-16 61 39 34 c22 19 42 34
45 34 3 0 6 -46 5 -102 -2 -146 22 -166 81 -73 20 30 38 55 41 55 4 0 3 -33
-1 -73 -5 -56 -3 -76 7 -85 8 -6 19 -8 25 -4 22 14 142 175 137 183 -14 23
-44 5 -83 -51 -23 -33 -45 -60 -47 -60 -3 0 -2 35 1 78 7 70 5 80 -10 86 -23
8 -40 -7 -73 -63 l-27 -46 -5 80 -5 80 -39 13 c-36 11 -41 11 -71 -13 l-33
-25 -7 40 c-4 25 -14 44 -27 51 -27 15 -30 8 -19 -42 17 -73 14 -83 -34 -117
-34 -24 -47 -29 -51 -18 -3 7 -24 22 -47 32 -55 23 -52 20 -38 48 13 23 15 23
49 9 29 -12 36 -12 43 -1 14 21 11 25 -23 34 -34 10 -44 29 -29 53 7 11 15 11
45 1 37 -12 66 -8 66 8 0 10 -94 52 -117 52 -8 0 -26 -26 -40 -57z"/>
<path d="M5106 5568 c-8 -18 -26 -59 -40 -91 -14 -32 -26 -66 -26 -77 0 -31
30 -24 41 10 7 18 18 30 29 30 14 0 20 -11 25 -50 5 -34 13 -54 25 -60 27 -15
28 -14 22 36 -4 43 -3 47 32 75 41 34 48 75 19 101 -17 15 -97 58 -107 58 -3
0 -12 -15 -20 -32z m82 -44 c12 -8 22 -21 22 -28 0 -24 -51 -34 -79 -17 -11 7
-10 13 4 35 20 30 23 31 53 10z"/>
<path d="M5652 3898 c3 -98 5 -113 21 -116 15 -3 17 7 17 112 0 110 -1 116
-20 116 -20 0 -21 -5 -18 -112z"/>
<path d="M5730 3895 c0 -92 3 -115 14 -115 10 0 17 21 23 73 l8 72 37 -60 c46
-75 55 -85 73 -85 12 0 15 21 15 115 0 107 -1 115 -19 115 -18 0 -19 -7 -17
-70 2 -38 0 -70 -3 -70 -3 1 -25 32 -49 70 -29 47 -50 70 -63 70 -18 0 -19 -8
-19 -115z"/>
<path d="M5949 3932 c50 -136 59 -152 79 -152 15 0 28 23 60 108 23 60 42 112
42 116 0 4 -10 6 -22 4 -17 -2 -27 -19 -48 -75 -14 -40 -29 -75 -32 -78 -4 -4
-12 12 -18 36 -24 89 -41 119 -66 119 l-23 0 28 -78z"/>
<path d="M6150 3895 l0 -115 75 0 c68 0 75 2 75 20 0 18 -7 20 -55 20 -55 0
-55 0 -55 31 0 30 0 30 48 28 35 -3 47 0 47 11 0 16 -39 29 -73 24 -19 -3 -22
1 -22 26 0 30 1 30 55 30 48 0 55 2 55 20 0 18 -7 20 -75 20 l-75 0 0 -115z"/>
<path d="M6343 3973 c50 -80 50 -75 6 -137 -40 -55 -40 -56 -15 -56 17 0 33
12 54 41 l31 41 25 -41 c20 -31 33 -41 52 -41 26 0 26 0 9 28 -10 15 -28 41
-41 58 l-23 31 34 50 c19 28 31 53 28 57 -16 16 -40 2 -61 -35 l-24 -41 -25
41 c-18 30 -31 41 -49 41 l-24 0 23 -37z"/>
<path d="M6521 3998 c0 -7 15 -58 32 -113 27 -81 36 -101 54 -103 18 -3 23 6
38 67 9 39 20 71 24 71 3 0 15 -30 26 -68 16 -53 25 -68 42 -70 19 -3 25 6 46
75 14 43 28 95 32 116 7 33 5 37 -14 37 -11 0 -21 -5 -21 -11 0 -6 -10 -43
-22 -82 l-21 -71 -22 79 c-17 64 -25 81 -41 83 -18 3 -23 -7 -39 -65 -10 -37
-21 -72 -25 -76 -4 -4 -16 25 -27 65 -16 60 -23 74 -41 76 -13 2 -22 -2 -21
-10z"/>
<path d="M6843 3895 c-1 -107 0 -115 18 -115 18 0 19 9 19 115 0 103 -2 115
-17 115 -16 0 -18 -13 -20 -115z"/>
<path d="M6920 3895 c0 -107 1 -115 19 -115 16 0 20 8 23 42 4 59 27 60 57 3
18 -34 30 -45 48 -45 l24 0 -27 46 -27 45 22 20 c21 19 28 63 13 85 -14 22
-51 34 -101 34 l-51 0 0 -115z m109 61 c19 -23 2 -46 -35 -46 -29 0 -34 3 -34
23 0 13 3 27 7 30 11 12 50 8 62 -7z"/>
<path d="M7115 3998 c-3 -11 -2 -108 3 -190 2 -28 3 -28 72 -28 63 0 70 2 70
20 0 18 -7 20 -56 20 -54 0 -55 0 -52 28 3 25 7 27 51 30 33 2 47 7 47 18 0
10 -13 14 -51 14 -49 0 -50 1 -47 28 3 25 7 27 56 30 44 3 52 6 52 23 0 17 -7
19 -70 19 -48 0 -72 -4 -75 -12z"/>
<path d="M3020 3725 c0 -98 1 -105 20 -105 19 0 20 7 20 105 0 98 -1 105 -20
105 -19 0 -20 -7 -20 -105z"/>
<path d="M3102 3723 c3 -94 5 -108 21 -111 16 -3 17 2 11 62 -4 39 -3 66 2 66
6 0 29 -29 52 -65 34 -51 49 -65 68 -65 l25 0 -3 107 c-3 92 -5 108 -20 111
-15 3 -18 -7 -20 -75 l-3 -78 -45 75 c-32 53 -52 76 -68 78 -23 3 -23 3 -20
-105z"/>
<path d="M3300 3823 c0 -4 14 -44 31 -88 17 -44 35 -92 40 -106 13 -34 46 -44
59 -18 31 57 80 203 71 212 -19 19 -37 -2 -65 -79 -16 -44 -31 -74 -33 -69
-51 134 -59 150 -81 153 -12 2 -22 0 -22 -5z"/>
<path d="M3530 3705 l0 -115 75 0 c68 0 75 2 75 20 0 18 -7 20 -56 20 -54 0
-55 0 -52 28 3 24 7 27 46 30 34 3 42 7 42 23 0 16 -7 19 -45 19 -41 0 -45 2
-45 24 0 23 4 25 52 28 41 2 54 7 56 21 3 15 -6 17 -72 17 l-76 0 0 -115z"/>
<path d="M3700 3812 c0 -4 16 -31 36 -60 l35 -53 -37 -50 c-24 -32 -33 -54
-27 -60 15 -15 37 -1 57 36 11 19 22 35 26 35 4 0 19 -18 34 -40 24 -37 57
-52 70 -32 2 4 -13 31 -35 60 l-40 52 29 43 c46 67 46 67 18 67 -17 0 -31 -10
-46 -35 -25 -40 -39 -36 -60 15 -9 21 -19 30 -36 30 -13 0 -24 -3 -24 -8z"/>
<path d="M3900 3798 c0 -17 58 -189 70 -208 17 -27 41 2 64 75 l22 70 23 -78
c36 -121 54 -116 99 27 37 119 37 116 17 116 -18 0 -33 -28 -55 -100 l-17 -55
-23 77 c-16 53 -29 78 -42 81 -22 6 -21 8 -43 -75 -10 -38 -21 -68 -24 -68 -4
0 -15 33 -26 73 -17 60 -24 73 -43 75 -13 2 -22 -2 -22 -10z"/>
<path d="M4237 3793 c-4 -3 -7 -55 -7 -115 0 -100 1 -108 19 -108 16 0 20 8
23 42 4 60 28 62 62 3 18 -30 34 -45 47 -45 11 0 19 3 17 8 -2 4 -12 24 -22
46 -17 37 -17 39 3 58 28 25 26 63 -4 93 -20 20 -34 25 -78 25 -29 0 -57 -3
-60 -7z m108 -62 c0 -19 -7 -26 -29 -32 -36 -10 -46 -4 -46 25 0 31 9 37 45
34 24 -2 30 -8 30 -27z"/>
<path d="M4435 3788 c-3 -8 -4 -61 -3 -118 l3 -103 70 -1 c64 -1 70 1 70 19 0
17 -8 20 -53 23 -48 3 -53 5 -50 25 2 18 11 23 46 25 23 2 42 7 42 13 0 5 1
12 3 17 1 4 -18 9 -43 12 -41 5 -45 8 -48 34 l-4 29 56 -6 c51 -5 56 -4 56 14
0 16 -7 19 -54 19 -30 0 -61 3 -70 6 -9 3 -18 0 -21 -8z"/>
<path d="M3213 3180 c-45 -27 -73 -87 -73 -153 0 -71 29 -115 93 -141 42 -18
54 -19 104 -8 32 6 63 17 69 24 7 7 14 44 15 83 l3 70 -72 3 c-71 3 -72 2 -72
-22 0 -21 6 -25 40 -31 34 -6 40 -10 40 -31 0 -33 -38 -50 -81 -38 -44 13 -74
55 -74 105 0 34 6 46 33 70 36 33 69 36 113 13 30 -15 69 -11 69 7 0 13 -48
53 -73 61 -44 13 -102 8 -134 -12z"/>
<path d="M3630 3040 l0 -160 105 0 105 0 0 30 0 30 -75 0 -75 0 0 35 0 35 71
0 70 0 -3 28 c-3 26 -5 27 -71 30 l-68 3 3 32 3 32 73 3 c73 3 73 3 70 30 l-3
27 -102 3 -103 3 0 -161z"/>
<path d="M4105 3191 c-49 -20 -80 -98 -53 -132 17 -20 64 -45 105 -53 59 -13
70 -57 18 -70 -18 -5 -40 -1 -65 12 -61 30 -94 -2 -47 -46 45 -43 151 -38 193
9 25 27 24 91 0 118 -11 12 -43 28 -72 37 -62 18 -83 37 -64 59 16 20 60 19
89 -2 23 -16 25 -15 43 6 22 28 19 34 -26 55 -36 17 -88 20 -121 7z"/>
<path d="M4457 3193 c-4 -3 -7 -17 -7 -30 0 -21 5 -23 45 -23 l44 0 3 -132 3
-132 34 0 35 -1 -2 115 c-2 147 -1 150 49 150 37 0 39 2 39 30 l0 30 -118 0
c-65 0 -122 -3 -125 -7z"/>
<path d="M4970 3178 c-45 -31 -70 -82 -70 -141 0 -114 75 -178 187 -161 148
22 177 239 41 310 -42 22 -119 18 -158 -8z m137 -53 c27 -19 46 -77 38 -115
-10 -44 -61 -83 -99 -76 -77 15 -104 119 -47 177 33 33 74 38 108 14z"/>
<path d="M5430 3042 l0 -160 30 -4 c17 -3 32 -2 35 0 3 3 5 32 5 64 0 49 3 58
18 58 12 0 29 -20 49 -57 22 -41 38 -59 58 -64 50 -14 54 -2 21 60 l-30 58 27
32 c41 49 35 125 -12 150 -10 6 -60 13 -110 17 l-91 6 0 -160z m166 72 c20
-29 -1 -54 -52 -61 -47 -6 -58 7 -47 58 5 28 8 30 46 27 27 -2 44 -10 53 -24z"/>
<path d="M6192 3040 l3 -163 84 2 c93 3 125 14 164 61 39 46 45 108 16 167
-33 66 -69 84 -180 91 l-90 5 3 -163z m179 71 c64 -64 20 -171 -70 -171 l-41
0 0 100 0 100 41 0 c31 0 47 -6 70 -29z"/>
<path d="M6670 3040 l0 -161 108 3 107 3 3 28 3 27 -75 0 -76 0 0 35 0 35 66
0 65 0 -3 28 c-3 26 -6 27 -65 30 l-63 3 0 34 0 34 73 3 c69 3 72 4 72 28 0
25 0 25 -107 28 l-108 3 0 -161z"/>
<path d="M6650 2709 c-90 -37 -128 -152 -79 -238 31 -55 65 -75 134 -79 47 -2
67 1 92 17 98 62 94 234 -8 286 -38 20 -108 27 -139 14z m119 -83 c60 -64 20
-176 -63 -176 -44 0 -78 39 -83 97 -5 45 -2 55 20 77 35 35 94 36 126 2z"/>
<path d="M7120 2702 c-42 -21 -64 -61 -55 -103 8 -35 33 -54 102 -74 28 -8 54
-22 57 -31 17 -43 -55 -59 -111 -25 -31 19 -31 19 -48 0 -15 -16 -16 -21 -5
-34 36 -44 133 -59 189 -30 35 18 55 63 46 105 -8 35 -50 66 -102 76 -17 3
-39 14 -47 23 -15 16 -14 19 3 36 20 17 28 17 92 -10 18 -7 53 21 43 36 -9 16
-82 49 -106 49 -13 0 -39 -8 -58 -18z"/>
<path d="M2760 2550 l0 -160 35 0 35 0 0 160 0 160 -35 0 -35 0 0 -160z"/>
<path d="M3055 2553 l0 -158 33 -3 32 -3 0 95 c0 86 9 119 23 84 2 -7 32 -50
66 -95 53 -72 65 -83 91 -83 l30 0 0 160 0 160 -35 0 -35 0 0 -96 0 -96 -71
96 c-64 86 -74 96 -102 96 l-32 0 0 -157z"/>
<path d="M3544 2618 c84 -228 81 -223 114 -226 35 -4 45 11 88 124 13 35 35
93 49 129 l24 65 -37 0 -37 0 -33 -93 c-18 -50 -37 -101 -41 -112 -6 -15 -17
7 -47 93 l-39 112 -37 0 -38 0 34 -92z"/>
<path d="M3992 2553 l3 -158 108 -3 107 -3 0 33 0 33 -75 -3 -75 -4 0 41 0 41
65 0 c63 0 65 1 65 25 0 24 -2 25 -65 25 l-65 0 0 35 0 35 75 0 75 0 0 30 0
30 -110 0 -111 0 3 -157z"/>
<path d="M4420 2549 l0 -160 33 3 c35 3 34 -2 36 153 l1 49 75 -102 c66 -89
79 -102 105 -102 l30 0 0 160 0 160 -35 0 -34 0 -3 -90 -3 -91 -68 91 c-62 83
-70 90 -102 90 l-35 0 0 -161z"/>
<path d="M4890 2681 c0 -28 3 -30 43 -33 l42 -3 3 -127 3 -128 34 0 35 0 0
130 0 130 45 0 c43 0 45 1 45 30 l0 30 -125 0 -125 0 0 -29z"/>
<path d="M5421 2688 c-5 -13 -32 -80 -60 -151 -28 -70 -51 -132 -51 -137 0 -6
16 -10 35 -10 31 0 35 3 46 40 l12 41 65 -3 c65 -3 65 -3 77 -38 10 -30 16
-35 48 -38 20 -2 37 0 37 5 0 4 -9 30 -20 58 -11 27 -38 95 -60 150 l-39 100
-41 3 c-34 3 -41 0 -49 -20z m75 -132 c6 -24 4 -26 -30 -26 -20 0 -36 3 -36 6
0 4 8 29 18 56 l17 49 12 -29 c7 -16 15 -41 19 -56z"/>
<path d="M5822 2553 l3 -158 33 -3 32 -3 0 60 c0 58 1 61 25 61 19 0 29 -10
46 -42 31 -63 48 -78 86 -78 18 0 33 2 33 5 0 3 -16 31 -35 61 l-36 56 24 22
c31 29 41 59 32 102 -10 55 -51 74 -158 74 l-88 0 3 -157z m168 83 c6 -8 10
-25 8 -38 -3 -20 -9 -23 -55 -26 l-53 -3 0 40 0 41 44 0 c26 0 48 -6 56 -14z"/>
<path d="M6272 2553 l3 -158 33 -3 32 -3 0 150 c0 83 1 154 3 159 1 4 -15 8
-36 10 l-38 3 3 -158z"/>
</g>
</svg>
